<svg width="105" height="38" fill="none" xmlns="http://www.w3.org/2000/svg"><path d="M50.616 36.552c0-1.649.045-1.87.44-2.285.506-.52 1.245-.656 1.873-.338.577.299.875.786.881 1.442.014 1.317-1.516 2.07-2.56 1.26-.129-.105-.252-.19-.272-.19-.019 0-.038.351-.038.78V38h-.324v-1.448zm2.106-.039a1.28 1.28 0 00.531-1.883c-.57-.857-1.983-.61-2.255.396-.272 1.026.765 1.922 1.724 1.487zm2.8.364c-.759-.24-1.238-1.169-1.024-1.974.103-.37.44-.798.784-.993.395-.22 1.069-.227 1.47-.013.35.182.649.552.766.948.162.532.259.493-1.297.493h-1.393v.176c0 .474.473 1 .979 1.09.447.085 1.056-.181 1.283-.558.103-.175.11-.175.26-.058l.155.11-.312.337c-.447.474-1.043.637-1.671.442zm1.64-2.026c-.182-.48-.604-.766-1.129-.766-.356 0-.557.078-.803.305-.162.143-.337.435-.337.559 0 .039.395.065 1.166.065h1.167l-.065-.163zm7.633 2.013c-.363-.117-.83-.61-.946-.994-.181-.603-.058-1.175.357-1.636.861-.96 2.423-.5 2.67.799l.051.305h-2.786l.032.292c.065.578.532.968 1.154.968.42 0 .732-.143 1.004-.461.136-.156.227-.208.311-.182.162.065.136.195-.097.454-.408.468-1.121.656-1.75.455zm1.698-1.941c0-.124-.265-.494-.46-.637-.583-.435-1.562-.149-1.795.526l-.071.201h1.166c.933 0 1.16-.019 1.16-.09zm-8.101-1.143h.39v2.727h1.684V33.78h.389v2.727h1.75V33.78h.389v3.116h-4.602V33.78zm9.332 0h.162c.163 0 .163 0 .163.617v.616h1.879v-.616c0-.617 0-.617.162-.617h.162v3.116h-.324v-1.493h-1.88v1.493h-.324V33.78zm3.436 0h.388v1.136c0 .623.026 1.136.052 1.136.032 0 .557-.506 1.166-1.13l1.115-1.123v3.097h-.389v-2.305L71.16 36.93v-3.15zm3.37 3.084c0-.02.2-.338.446-.708.253-.37.434-.688.415-.714a.3.3 0 00-.156-.039c-.064 0-.22-.097-.343-.22-.207-.196-.233-.254-.233-.546 0-.617.363-.857 1.315-.857h.5v3.116h-.39v-.714c0-.708 0-.714-.155-.714-.13 0-.233.13-.596.714-.396.623-.467.714-.623.714-.103 0-.18-.013-.18-.032zm1.554-2.76h-.337c-.188 0-.414.04-.499.085-.285.143-.337.61-.097.85.072.072.227.104.519.104h.414v-1.038zm-17.387-3.252a1.432 1.432 0 01-.823-.487c-.292-.338-.402-.643-.402-1.104a1.57 1.57 0 011.569-1.584c.395 0 .674.11.991.39l.24.207v-.266c0-.253.013-.266.194-.266h.195v3.051h-.195c-.181 0-.194-.02-.194-.233v-.228l-.208.156c-.473.35-.92.474-1.367.364zm1.017-.474c.772-.448.791-1.617.046-2.15-.24-.168-.337-.194-.687-.194-.35 0-.447.026-.687.195-.784.552-.732 1.675.104 2.181.291.182.887.17 1.224-.032zm5.289.487c-.778-.17-1.277-.864-1.219-1.72.078-1.3 1.588-1.936 2.592-1.091.24.2.506.746.506 1.038v.208h-2.78l.039.214c.116.617.48.968 1.063 1.007.499.039.784-.072 1.082-.41.194-.22.266-.266.356-.22.156.09.136.188-.084.46-.337.41-1.011.63-1.555.514zm1.49-1.98c0-.143-.278-.513-.512-.67a1.153 1.153 0 00-1.672.403c-.084.143-.149.28-.149.312 0 .026.525.045 1.167.045.94 0 1.166-.019 1.166-.09zm14.257 1.98c-.725-.156-1.224-.799-1.23-1.584 0-1.117.997-1.85 2.08-1.526.518.15.959.701 1.05 1.305l.038.24h-2.78v.195c0 .279.22.675.467.85.246.182.83.24 1.18.124.122-.04.343-.202.479-.357.22-.254.259-.273.395-.202l.143.078-.214.286a1.664 1.664 0 01-1.608.59zm1.491-1.954c0-.04-.058-.182-.13-.319-.142-.292-.667-.59-1.017-.59-.246 0-.635.149-.817.311-.11.098-.369.54-.369.63 0 .02.525.032 1.166.032.765 0 1.167-.026 1.167-.065zm-31.626.519c0-1.792-.084-1.688 1.323-1.688.965 0 1.01.007 1.185.156l.182.156.039 2.74h-.395V29.54c0-.98-.02-1.28-.091-1.383-.078-.104-.188-.124-.817-.143-.576-.02-.752-.007-.875.078l-.162.104v2.597h-.389V29.43zm3.52 1.266c.09-.227 1.302-2.863 1.341-2.908.032-.04 1.186 2.363 1.406 2.928.02.052-.032.078-.155.078-.175 0-.208-.052-.674-1.078-.272-.591-.519-1.071-.551-1.071-.033 0-.279.48-.544 1.07-.46 1.033-.493 1.079-.668 1.079-.136 0-.181-.026-.155-.098zm8.016-2.629h-.421c-.408 0-.421-.007-.421-.163v-.162h2.009v.162c0 .156-.013.163-.422.163h-.42v2.726h-.325v-2.726zm10.175-.325h.389v1.233h1.814v-1.233h.389v3.051h-.389V29.3h-1.814v1.493h-.39v-3.051zm3.499 0h.162c.162 0 .162 0 .162.61v.604l.538.032c.68.04.92.156 1.095.552.15.338.124.63-.084.89-.233.299-.447.363-1.192.363h-.68v-3.051zm1.42 2.649c.362-.227.304-.831-.098-1-.116-.052-.376-.09-.577-.09h-.356v1.252l.447-.039c.246-.02.506-.071.584-.123zm1.237-2.649h.324v3.051h-.324v-3.051zm-20.595-3.324l.02-1.512.194-.358c.24-.435.635-.746 1.069-.837.434-.098.771-.033 1.18.214 1.088.656.991 2.266-.169 2.805-.55.26-1.134.195-1.607-.175-.13-.104-.253-.189-.272-.189-.02 0-.04.35-.04.78v.778h-.401l.026-1.506zm2.32-.078c.654-.435.765-1.305.24-1.902-.376-.428-.979-.532-1.523-.273-.946.461-.843 1.935.155 2.305.344.123.83.072 1.128-.13zm5.12.454c0-.35 0-.357.207-.376.207-.02.214-.039.79-1.363.402-.935.616-1.35.681-1.35.071 0 .285.428.68 1.363.558 1.317.584 1.363.765 1.363.175 0 .182.006.182.357 0 .338-.007.357-.162.357-.136 0-.162-.032-.162-.195v-.194h-2.593v.194c0 .176-.019.195-.194.195-.194 0-.194-.006-.194-.35zm2.527-.396c0-.064-.79-2.012-.836-2.058-.039-.045-.914 1.922-.914 2.052 0 .02.396.039.875.039.48 0 .875-.013.875-.033zm-12.896.338c-.124-.039-.35-.201-.5-.35-.59-.617-.628-1.54-.084-2.227.279-.351.655-.52 1.173-.52.512 0 .85.15 1.173.507.214.233.44.772.44 1.032 0 .065-.284.084-1.392.084h-1.394v.156c0 .383.311.825.694.987.48.208 1.134.039 1.484-.383.168-.208.2-.22.337-.15l.149.079-.201.279c-.37.506-1.18.727-1.88.506zm1.75-1.922c0-.207-.286-.552-.584-.7-.668-.345-1.367-.092-1.653.583l-.097.24h1.167c1.095 0 1.166-.006 1.166-.123zm6.059 1.929a1.525 1.525 0 01-.79-.688c-.156-.267-.182-.377-.182-.831 0-.468.02-.559.194-.838.305-.487.655-.708 1.199-.733.544-.033.843.058 1.186.37.272.246.454.59.525 1l.045.24h-2.793v.155c0 .384.311.825.693.987.48.208 1.135.04 1.485-.383.168-.208.2-.22.337-.15l.149.079-.195.266c-.272.377-.758.604-1.264.597-.22 0-.48-.032-.59-.071zm1.717-1.928c0-.208-.285-.552-.583-.702-.46-.24-1.011-.181-1.348.13-.136.124-.402.565-.402.663 0 .019.525.032 1.167.032 1.095 0 1.166-.006 1.166-.123zm5.541 1.882a1.564 1.564 0 01-.914-1.201c-.097-.701.195-1.33.778-1.662.279-.162.402-.195.784-.195.383 0 .506.033.778.189 1.108.636 1.076 2.265-.052 2.83-.408.201-.985.22-1.374.04zm1.173-.325c.15-.064.35-.233.454-.363.155-.208.188-.318.207-.708.02-.422.007-.487-.168-.76-.22-.343-.629-.577-1.018-.577s-.797.234-1.017.578c-.175.272-.188.337-.169.76.02.389.052.5.208.707.22.286.615.487.978.487.143 0 .383-.059.525-.123zm9.254.325c-.48-.22-.933-.934-.933-1.467 0-.578.486-1.298 1.005-1.5.453-.168 1.12-.11 1.47.143.35.24.623.682.675 1.084l.045.306h-2.819l.039.246c.058.318.343.72.622.864.48.26 1.27.078 1.568-.35.078-.118.15-.215.156-.228.032-.046.285.123.285.182 0 .13-.473.578-.739.707-.356.176-1.004.182-1.374.013zm1.828-1.863a.765.765 0 01-.039-.156c0-.117-.428-.539-.629-.623-.531-.227-1.23-.006-1.49.461-.084.143-.15.299-.15.344 0 .059.28.078 1.174.078 1.043 0 1.166-.013 1.134-.104zm-31.664.564c0-1.343 0-1.363.155-1.545l.156-.181 1.944-.04.22.189.214.195.039 2.74h-.395v-1.254c0-1.623.051-1.538-.947-1.538-.414 0-.803.032-.875.065-.116.064-.123.149-.123 1.395v1.331h-.388v-1.357zm22.423-1.694h.583c.363 0 .674.033.81.091.48.201.564.902.149 1.201-.123.085-.117.091.097.24a.82.82 0 01.266 1.072c-.162.318-.532.448-1.27.448h-.635v-3.052zm1.425 2.597c.169-.169.175-.578.007-.785-.104-.124-.195-.156-.584-.176l-.46-.026v1.117h.454c.37 0 .48-.026.583-.13zm-.149-1.441c.175-.163.195-.474.046-.688-.085-.124-.156-.143-.519-.143h-.415v.974h.37c.285 0 .402-.033.518-.143zm1.445-1.156h.39v1.22l1.185.053.247.272c.22.234.252.312.252.572 0 .681-.389.934-1.425.934h-.649v-3.05zm1.562 2.539c.22-.273.123-.773-.181-.91-.085-.038-.344-.07-.57-.07h-.422v1.18l.525-.025c.454-.02.538-.039.648-.175zm1.096-2.539h.388v3.052h-.388v-3.052zm-10.59 8.46c.311-.35.655-.734.765-.844l.194-.215-.713-.675c-.686-.662-.7-.681-.499-.688.175 0 .318.104.94.682l.732.688.04-1.37h.375l.04 1.357.731-.682c.616-.565.772-.675.94-.675.201.006.188.026-.492.669-.383.363-.694.688-.694.714 0 .026.337.415.752.857l.752.811h-.227c-.214 0-.285-.064-.894-.746-.63-.701-.674-.74-.785-.637-.097.085-.116.208-.116.747v.636h-.39v-.636c0-.539-.019-.662-.116-.753-.117-.097-.155-.071-.784.643-.61.688-.68.746-.894.746h-.227l.57-.63zm20.245-14.301c0-7.856 0-7.836.356-9.076.09-.318.324-.909.519-1.305 1.14-2.35 3.311-4.038 5.93-4.61.77-.168 2.527-.168 3.304-.006 1.666.357 3.001 1.065 4.213 2.227C104.099 4.735 105 6.839 105 9.189c-.006.532-.045 1.143-.104 1.467-.46 2.571-2.145 4.87-4.419 6.045-.746.39-1.141.539-1.938.74-.882.227-2.437.286-3.364.13-1.71-.292-3.22-1.059-4.51-2.292l-.583-.552v8.388h-2.01v-7.252zm10.135-.337c.635-.17 1.614-.63 2.139-1.007.454-.324 1.283-1.168 1.575-1.597.324-.48.719-1.324.907-1.928.162-.526.175-.662.175-1.74.006-1.026-.013-1.234-.143-1.72-.628-2.292-2.41-4.071-4.653-4.649-4.737-1.214-9.04 2.909-8.03 7.7a6.59 6.59 0 003.13 4.291c.526.299 1.524.67 2.088.767.609.11 2.223.045 2.812-.117zm-47.593-5.149c0-5.447.019-6.836.09-7.096.214-.799.778-1.545 1.458-1.902.752-.41.7-.403 5.548-.403 4.789 0 4.77 0 5.489.364.434.22 1.024.811 1.244 1.246.376.74.363.487.363 7.817v6.74h-2.139v-6.571c0-7.44.04-6.836-.537-7.369-.525-.48-.506-.48-4.589-.46l-3.59.019-.343.188c-.357.201-.597.467-.778.87-.104.22-.11.792-.13 6.784l-.02 6.538h-2.066v-6.765zm18.664 0c0-5.447.02-6.836.09-7.096.214-.799.778-1.545 1.459-1.902.751-.41.7-.403 5.547-.403 4.79 0 4.77 0 5.49.364.433.22 1.023.811 1.243 1.246.376.74.363.487.363 7.817v6.74h-2.138v-6.571c0-6.272-.007-6.59-.123-6.836a1.863 1.863 0 00-.85-.838c-.284-.136-.369-.136-4.017-.136-3.72 0-3.727 0-3.992.142-.357.189-.668.507-.81.832-.117.246-.124.61-.124 6.836v6.57H69.28v-6.765z" fill="#fff"/><path fill-rule="evenodd" clip-rule="evenodd" d="M42.93 10.833L31.883 1.359a2.136 2.136 0 00-2.59-.146L10.657 13.857a.715.715 0 00-.074 1.124l10.718 9.562a2.394 2.394 0 002.956.183l18.619-12.865a.65.65 0 00.053-1.028zM32.431.718a2.977 2.977 0 00-3.61-.204L10.184 13.158a1.56 1.56 0 00-.162 2.454l10.718 9.561a3.236 3.236 0 003.994.248l18.62-12.866a1.495 1.495 0 00.122-2.363L32.432.718z" fill="#fff"/><path fill-rule="evenodd" clip-rule="evenodd" d="M33.593 12.898l-11.11-9.53a2.136 2.136 0 00-2.59-.146L1.155 15.934a.715.715 0 00-.075 1.125l10.782 9.618a2.394 2.394 0 002.956.184l18.72-12.936a.65.65 0 00.054-1.027zM23.03 2.727a2.977 2.977 0 00-3.61-.204L.683 15.235a1.56 1.56 0 00-.162 2.454l10.782 9.619a3.236 3.236 0 003.995.248l18.72-12.936a1.495 1.495 0 00.123-2.363l-11.11-9.53z" fill="#fff"/><path fill-rule="evenodd" clip-rule="evenodd" d="M38.389 22.009l-11.11-9.53a2.135 2.135 0 00-2.59-.146L5.95 25.045a.715.715 0 00-.074 1.125l10.782 9.619a2.395 2.395 0 002.956.183l18.72-12.936a.65.65 0 00.054-1.027zm-10.563-10.17a2.977 2.977 0 00-3.61-.205L5.479 24.346a1.56 1.56 0 00-.162 2.454l10.782 9.619a3.236 3.236 0 003.994.248l18.72-12.936a1.495 1.495 0 00.124-2.363l-11.11-9.53z" fill="#fff"/></svg>